<svg width="138" height="50" viewBox="0 0 138 50" fill="none" xmlns="http://www.w3.org/2000/svg">
  <path d="M5.88 9.32V13.76H13.656V16.88H5.88V23H1.992V6.2H14.688V9.32H5.88ZM21.9126 9.896C23.9126 9.896 25.4486 10.376 26.5206 11.336C27.5926 12.28 28.1286 13.712 28.1286 15.632V23H24.6246V21.392C23.9206 22.592 22.6086 23.192 20.6886 23.192C19.6966 23.192 18.8326 23.024 18.0966 22.688C17.3766 22.352 16.8246 21.888 16.4406 21.296C16.0566 20.704 15.8646 20.032 15.8646 19.28C15.8646 18.08 16.3126 17.136 17.2086 16.448C18.1206 15.76 19.5206 15.416 21.4086 15.416H24.3846C24.3846 14.6 24.1366 13.976 23.6406 13.544C23.1446 13.096 22.4006 12.872 21.4086 12.872C20.7206 12.872 20.0406 12.984 19.3686 13.208C18.7126 13.416 18.1526 13.704 17.6886 14.072L16.3446 11.456C17.0486 10.96 17.8886 10.576 18.8646 10.304C19.8566 10.032 20.8726 9.896 21.9126 9.896ZM21.6246 20.672C22.2646 20.672 22.8326 20.528 23.3286 20.24C23.8246 19.936 24.1766 19.496 24.3846 18.92V17.6H21.8166C20.2806 17.6 19.5126 18.104 19.5126 19.112C19.5126 19.592 19.6966 19.976 20.0646 20.264C20.4486 20.536 20.9686 20.672 21.6246 20.672ZM37.8977 23.192C36.5217 23.192 35.2817 22.912 34.1777 22.352C33.0897 21.776 32.2337 20.984 31.6097 19.976C31.0017 18.968 30.6977 17.824 30.6977 16.544C30.6977 15.264 31.0017 14.12 31.6097 13.112C32.2337 12.104 33.0897 11.32 34.1777 10.76C35.2817 10.184 36.5217 9.896 37.8977 9.896C39.2577 9.896 40.4417 10.184 41.4497 10.76C42.4737 11.32 43.2177 12.128 43.6817 13.184L40.7777 14.744C40.1057 13.56 39.1377 12.968 37.8737 12.968C36.8977 12.968 36.0897 13.288 35.4497 13.928C34.8097 14.568 34.4897 15.44 34.4897 16.544C34.4897 17.648 34.8097 18.52 35.4497 19.16C36.0897 19.8 36.8977 20.12 37.8737 20.12C39.1537 20.12 40.1217 19.528 40.7777 18.344L43.6817 19.928C43.2177 20.952 42.4737 21.752 41.4497 22.328C40.4417 22.904 39.2577 23.192 37.8977 23.192ZM58.3213 16.592C58.3213 16.64 58.2973 16.976 58.2493 17.6H48.4813C48.6573 18.4 49.0733 19.032 49.7293 19.496C50.3853 19.96 51.2013 20.192 52.1773 20.192C52.8493 20.192 53.4413 20.096 53.9533 19.904C54.4813 19.696 54.9693 19.376 55.4173 18.944L57.4093 21.104C56.1933 22.496 54.4173 23.192 52.0813 23.192C50.6253 23.192 49.3373 22.912 48.2173 22.352C47.0973 21.776 46.2333 20.984 45.6253 19.976C45.0173 18.968 44.7133 17.824 44.7133 16.544C44.7133 15.28 45.0093 14.144 45.6013 13.136C46.2093 12.112 47.0333 11.32 48.0733 10.76C49.1293 10.184 50.3053 9.896 51.6013 9.896C52.8653 9.896 54.0093 10.168 55.0333 10.712C56.0573 11.256 56.8573 12.04 57.4333 13.064C58.0253 14.072 58.3213 15.248 58.3213 16.592ZM51.6253 12.728C50.7773 12.728 50.0653 12.968 49.4893 13.448C48.9133 13.928 48.5613 14.584 48.4333 15.416H54.7933C54.6653 14.6 54.3133 13.952 53.7373 13.472C53.1613 12.976 52.4573 12.728 51.6253 12.728ZM80.9308 10.088V20.84C80.9308 23.208 80.3148 24.968 79.0828 26.12C77.8508 27.272 76.0508 27.848 73.6828 27.848C72.4348 27.848 71.2508 27.696 70.1308 27.392C69.0108 27.088 68.0828 26.648 67.3468 26.072L68.8348 23.384C69.3788 23.832 70.0668 24.184 70.8988 24.44C71.7308 24.712 72.5628 24.848 73.3948 24.848C74.6908 24.848 75.6428 24.552 76.2508 23.96C76.8748 23.384 77.1868 22.504 77.1868 21.32V20.768C76.2108 21.84 74.8508 22.376 73.1068 22.376C71.9228 22.376 70.8348 22.12 69.8428 21.608C68.8668 21.08 68.0908 20.344 67.5148 19.4C66.9388 18.456 66.6508 17.368 66.6508 16.136C66.6508 14.904 66.9388 13.816 67.5148 12.872C68.0908 11.928 68.8668 11.2 69.8428 10.688C70.8348 10.16 71.9228 9.896 73.1068 9.896C74.9788 9.896 76.4028 10.512 77.3788 11.744V10.088H80.9308ZM73.8508 19.304C74.8428 19.304 75.6508 19.016 76.2748 18.44C76.9148 17.848 77.2348 17.08 77.2348 16.136C77.2348 15.192 76.9148 14.432 76.2748 13.856C75.6508 13.264 74.8428 12.968 73.8508 12.968C72.8588 12.968 72.0428 13.264 71.4028 13.856C70.7628 14.432 70.4428 15.192 70.4428 16.136C70.4428 17.08 70.7628 17.848 71.4028 18.44C72.0428 19.016 72.8588 19.304 73.8508 19.304ZM89.6235 9.896C91.6235 9.896 93.1595 10.376 94.2315 11.336C95.3035 12.28 95.8395 13.712 95.8395 15.632V23H92.3355V21.392C91.6315 22.592 90.3195 23.192 88.3995 23.192C87.4075 23.192 86.5435 23.024 85.8075 22.688C85.0875 22.352 84.5355 21.888 84.1515 21.296C83.7675 20.704 83.5755 20.032 83.5755 19.28C83.5755 18.08 84.0235 17.136 84.9195 16.448C85.8315 15.76 87.2315 15.416 89.1195 15.416H92.0955C92.0955 14.6 91.8475 13.976 91.3515 13.544C90.8555 13.096 90.1115 12.872 89.1195 12.872C88.4315 12.872 87.7515 12.984 87.0795 13.208C86.4235 13.416 85.8635 13.704 85.3995 14.072L84.0555 11.456C84.7595 10.96 85.5995 10.576 86.5755 10.304C87.5675 10.032 88.5835 9.896 89.6235 9.896ZM89.3355 20.672C89.9755 20.672 90.5435 20.528 91.0395 20.24C91.5355 19.936 91.8875 19.496 92.0955 18.92V17.6H89.5275C87.9915 17.6 87.2235 18.104 87.2235 19.112C87.2235 19.592 87.4075 19.976 87.7755 20.264C88.1595 20.536 88.6795 20.672 89.3355 20.672ZM115.764 9.896C117.38 9.896 118.66 10.376 119.604 11.336C120.564 12.28 121.044 13.704 121.044 15.608V23H117.3V16.184C117.3 15.16 117.084 14.4 116.652 13.904C116.236 13.392 115.636 13.136 114.852 13.136C113.972 13.136 113.276 13.424 112.764 14C112.252 14.56 111.996 15.4 111.996 16.52V23H108.252V16.184C108.252 14.152 107.436 13.136 105.804 13.136C104.94 13.136 104.252 13.424 103.74 14C103.228 14.56 102.972 15.4 102.972 16.52V23H99.228V10.088H102.804V11.576C103.284 11.032 103.868 10.616 104.556 10.328C105.26 10.04 106.028 9.896 106.86 9.896C107.772 9.896 108.596 10.08 109.332 10.448C110.068 10.8 110.66 11.32 111.108 12.008C111.636 11.336 112.3 10.816 113.1 10.448C113.916 10.08 114.804 9.896 115.764 9.896ZM137.189 16.592C137.189 16.64 137.165 16.976 137.117 17.6H127.349C127.525 18.4 127.941 19.032 128.597 19.496C129.253 19.96 130.069 20.192 131.045 20.192C131.717 20.192 132.309 20.096 132.821 19.904C133.349 19.696 133.837 19.376 134.285 18.944L136.277 21.104C135.061 22.496 133.285 23.192 130.949 23.192C129.493 23.192 128.205 22.912 127.085 22.352C125.965 21.776 125.101 20.984 124.493 19.976C123.885 18.968 123.581 17.824 123.581 16.544C123.581 15.28 123.877 14.144 124.469 13.136C125.077 12.112 125.901 11.32 126.941 10.76C127.997 10.184 129.173 9.896 130.469 9.896C131.733 9.896 132.877 10.168 133.901 10.712C134.925 11.256 135.725 12.04 136.301 13.064C136.893 14.072 137.189 15.248 137.189 16.592ZM130.493 12.728C129.645 12.728 128.933 12.968 128.357 13.448C127.781 13.928 127.429 14.584 127.301 15.416H133.661C133.533 14.6 133.181 13.952 132.605 13.472C132.029 12.976 131.325 12.728 130.493 12.728Z" fill="black"/>
  <path d="M39 39C53 51 83.5 51.5 98 39" stroke="#FA0E1C" stroke-width="3" stroke-linecap="round"/>
</svg>
