<svg width="48" height="48" viewBox="0 0 48 48" fill="none" xmlns="http://www.w3.org/2000/svg">
<circle cx="24" cy="24" r="24" fill="white"/>
<g clip-path="url(#clip0_258:877)">
<path d="M35.5236 24.2753C35.5236 23.4595 35.4574 22.6394 35.3163 21.8369H23.9976V26.4579H30.4793C30.2103 27.9482 29.3461 29.2666 28.0806 30.1044V33.1028H31.9476C34.2184 31.0127 35.5236 27.9262 35.5236 24.2753Z" fill="#4285F4"/>
<path d="M23.9979 36.0003C27.2344 36.0003 29.9637 34.9377 31.9523 33.1034L28.0854 30.1051C27.0095 30.837 25.6205 31.2515 24.0023 31.2515C20.8717 31.2515 18.2173 29.1394 17.2649 26.2998H13.2744V29.3907C15.3115 33.4429 19.4607 36.0003 23.9979 36.0003V36.0003Z" fill="#34A853"/>
<path d="M17.2601 26.2997C16.7574 24.8094 16.7574 23.1956 17.2601 21.7052V18.6143H13.2741C11.5721 22.005 11.5721 25.9999 13.2741 29.3907L17.2601 26.2997V26.2997Z" fill="#FBBC04"/>
<path d="M23.9979 16.7487C25.7087 16.7222 27.3622 17.366 28.6012 18.5477L32.0273 15.1216C29.8579 13.0845 26.9786 11.9646 23.9979 11.9998C19.4607 11.9998 15.3115 14.5572 13.2744 18.6138L17.2604 21.7048C18.2085 18.8608 20.8673 16.7487 23.9979 16.7487V16.7487Z" fill="#EA4335"/>
</g>
<defs>
<clipPath id="clip0_258:877">
<rect width="23.5238" height="24" fill="white" transform="translate(12 12)"/>
</clipPath>
</defs>
</svg>
